<?xml version="1.0" encoding="UTF-8"?>
<svg xmlns="http://www.w3.org/2000/svg" width="260" height="39.314" viewBox="0 0 260 39.314">
  <g id="Group_138" data-name="Group 138" transform="translate(-256.326 -272.56)">
    <g id="Group_135" data-name="Group 135" transform="translate(256.326 272.56)">
      <g id="Group_134" data-name="Group 134" transform="translate(31.478)">
        <path id="Path_197" data-name="Path 197" d="M316.142,272.56A19.657,19.657,0,1,0,335.8,292.217,19.657,19.657,0,0,0,316.142,272.56Zm0,28.75a9.093,9.093,0,1,1,9.093-9.093A9.093,9.093,0,0,1,316.142,301.31Z" transform="translate(-296.485 -272.56)" fill="#003467"/>
      </g>
      <path id="Path_198" data-name="Path 198" d="M286.039,272.666H256.326v9.285h9.356v29.863h11V281.951h9.356Z" transform="translate(-256.326 -272.583)" fill="#003467"/>
      <path id="Path_199" data-name="Path 199" d="M424.362,272.666H394.649v9.285h9.356v29.863h11V281.951h9.356Z" transform="translate(-286.227 -272.583)" fill="#003467"/>
      <path id="Path_200" data-name="Path 200" d="M461.352,281.951v-9.284H436.807v39.147h24.545v-9.284H447.808v-5.647h11.783V287.6H447.808v-5.647Z" transform="translate(-295.34 -272.583)" fill="#003467"/>
      <path id="Path_201" data-name="Path 201" d="M547.466,272.666V287.6H533.843V272.666h-11v39.147h11V296.882h13.623v14.932h11V272.666Z" transform="translate(-313.937 -272.583)" fill="#003467"/>
      <path id="Path_202" data-name="Path 202" d="M492.03,301.31a9.093,9.093,0,1,1,7.41-14.351l9.16-5.289a19.647,19.647,0,1,0-.192,21.41l-9.191-5.306A9.068,9.068,0,0,1,492.03,301.31Z" transform="translate(-303.028 -272.56)" fill="#003467"/>
      <path id="Path_203" data-name="Path 203" d="M367.949,272.667H350.893v39.147h11V300.484h6.056a13.909,13.909,0,0,0,0-27.818Zm-2.043,18.782h-4.012V281.7h4.012a4.874,4.874,0,1,1,0,9.748Z" transform="translate(-276.768 -272.583)" fill="#003467"/>
    </g>
    <g id="Group_137" data-name="Group 137" transform="translate(504.189 272.852)">
      <path id="Path_204" data-name="Path 204" d="M578.629,274.39a4.529,4.529,0,0,1,1.209.161,4.581,4.581,0,0,1,1.094.462,4.644,4.644,0,0,1,2.127,2.772,4.552,4.552,0,0,1,.164,1.226,4.537,4.537,0,0,1-.624,2.3,4.694,4.694,0,0,1-.726.934,4.588,4.588,0,0,1-.937.723,4.748,4.748,0,0,1-1.113.47,4.62,4.62,0,0,1-2.433,0,4.629,4.629,0,0,1-1.1-.465,4.679,4.679,0,0,1-.935-.724,4.573,4.573,0,0,1-.724-.938,4.7,4.7,0,0,1-.469-1.114,4.651,4.651,0,0,1,0-2.43,4.6,4.6,0,0,1,.466-1.1,4.522,4.522,0,0,1,.72-.929,4.691,4.691,0,0,1,.941-.723,4.767,4.767,0,0,1,1.114-.47,4.532,4.532,0,0,1,1.228-.164m0-1.457a5.961,5.961,0,0,0-1.623.219,6.131,6.131,0,0,0-2.686,1.561,5.97,5.97,0,0,0-.951,1.225,6.056,6.056,0,0,0-.611,1.443,6.113,6.113,0,0,0,0,3.221,6.152,6.152,0,0,0,.615,1.454A6.086,6.086,0,0,0,577,284.85a6.07,6.07,0,0,0,3.221,0,6.12,6.12,0,0,0,3.636-2.79,6.051,6.051,0,0,0,.607-4.664,6.067,6.067,0,0,0-.614-1.454,6.158,6.158,0,0,0-2.176-2.179,5.969,5.969,0,0,0-3.044-.826Z" transform="translate(-572.543 -272.933)" fill="#003467"/>
      <g id="Group_136" data-name="Group 136" transform="translate(3.871 3.115)">
        <path id="Path_205" data-name="Path 205" d="M582.435,282.809l-.974-2.085a1.772,1.772,0,0,0,.688-1.4v-.641a1.782,1.782,0,0,0-1.776-1.776h-2.892v5.9h1.659V281.1c.039,0,.078.005.118.005h.721l.8,1.708Zm-3.3-3.051v-1.47h.605a.735.735,0,0,1,0,1.47Z" transform="translate(-577.481 -276.907)" fill="#003467"/>
      </g>
    </g>
  </g>
</svg>
